<?xml version="1.0" encoding="UTF-8" standalone="no"?><!DOCTYPE svg PUBLIC "-//W3C//DTD SVG 1.1//EN" "http://www.w3.org/Graphics/SVG/1.1/DTD/svg11.dtd"><svg width="100%" height="100%" viewBox="0 0 66 83" version="1.1" xmlns="http://www.w3.org/2000/svg" xmlns:xlink="http://www.w3.org/1999/xlink" xml:space="preserve" xmlns:serif="http://www.serif.com/" style="fill-rule:evenodd;clip-rule:evenodd;stroke-linecap:round;stroke-linejoin:round;stroke-miterlimit:1.5;"><g><g><g><rect x="1.422" y="12.855" width="6.319" height="27.553" style="fill:#363a40;"/><path d="M2.028,12.855c-1.795,8.36 -1.424,17.522 0,27.552" style="fill:none;stroke:#e8f5f4;stroke-width:1.63px;"/></g><path id="a" d="M2.062,10.388c0,-4.42 3.459,-8.066 7.872,-8.298c13.818,-0.626 28.985,-0.431 44.873,0.205c3.503,0.141 6.39,2.796 6.823,6.275c2.067,18.019 5.065,56.748 -0.721,69.452c-0.073,0.159 -0.157,0.312 -0.253,0.459c-3.838,4.855 -24.015,4.197 -53.713,0.321c-2.688,-0.352 -4.609,-2.777 -4.336,-5.474c1.286,-12.163 1.253,-19.744 -0.545,-33.453c5.998,-6.118 5.951,-19.997 0,-26.437l0,-3.05Z" style="fill:#8fb6db;stroke:#e8f5f4;stroke-width:1.63px;"/><path d="M19.919,2.556c9.797,9.59 20.076,9.715 30.855,0" style="fill:#363a40;stroke:#e8f5f4;stroke-width:1.63px;"/><path id="a1" serif:id="a" d="M2.062,9.591c0.001,-4.27 3.237,-7.843 7.486,-8.266c5.053,-0.504 8.983,-1.014 10.549,0.489c3.146,3.02 9.988,19.807 -0.396,22.959c-4.22,1.281 -12.775,-8.138 -17.639,-10.675l0,-4.507Z" style="fill:#abd2e6;stroke:#e8f5f4;stroke-width:1.63px;"/><path id="a2" serif:id="a" d="M62.293,9.213c0.001,-4.245 -3.198,-7.808 -7.419,-8.263c-2.123,-0.253 -3.727,-0.236 -4.487,0.869c-2.077,3.02 -6.594,19.806 0.262,22.959c2.785,1.281 8.433,-8.138 11.644,-10.675l0,-4.89Z" style="fill:#abd2e6;stroke:#e8f5f4;stroke-width:1.63px;"/></g><text x="19.203px" y="71.058px" style="font-family:'Molot';font-size:68.441px;fill:#e8f5f4;">6</text></g></svg>