<?xml version="1.0" encoding="UTF-8" standalone="no"?><!DOCTYPE svg PUBLIC "-//W3C//DTD SVG 1.1//EN" "http://www.w3.org/Graphics/SVG/1.1/DTD/svg11.dtd"><svg width="100%" height="100%" viewBox="0 0 59 90" version="1.1" xmlns="http://www.w3.org/2000/svg" xmlns:xlink="http://www.w3.org/1999/xlink" xml:space="preserve" xmlns:serif="http://www.serif.com/" style="fill-rule:evenodd;clip-rule:evenodd;stroke-linecap:round;stroke-linejoin:round;stroke-miterlimit:1.5;"><g><path d="M34.417,37.423l0,-35.517c7.705,3.248 15.22,3.351 22.525,0l0,37.457" style="fill:#c3c3c3;stroke:#48494a;stroke-width:3.81px;"/><path d="M56.942,50.023l0,37.457c-7.705,-3.248 -15.219,-3.351 -22.525,0l0,-35.256" style="fill:#c3c3c3;stroke:#48494a;stroke-width:3.81px;"/><path d="M1.724,37.883l25.763,0c14.698,4.443 13.727,8.887 0,13.33l-25.763,0" style="fill:#ecce6d;stroke:#e8f5f4;stroke-width:3.45px;"/><path d="M36.461,36.147l18.907,2.988l0,11.638l-18.907,2.937c5.97,-5.59 6.687,-11.433 0,-17.563Z" style="fill:#c3c3c3;"/><path d="M56.946,38.598l0,12.331" style="fill:none;stroke:#48494a;stroke-width:3.81px;"/><path d="M41.946,45.302l3.485,-2.601l3.877,2.601l5.104,-2.601" style="fill:none;stroke:#e8f5f4;stroke-width:1.09px;"/><path d="M22.568,28.973l7.382,5.56" style="fill:none;stroke:#8fb6db;stroke-width:3.45px;"/><path d="M29.95,55.814l-6.327,4.505" style="fill:none;stroke:#8fb6db;stroke-width:3.45px;"/></g></svg>